<?xml version="1.0" encoding="UTF-8" standalone="no"?>
<!DOCTYPE svg PUBLIC "-//W3C//DTD SVG 1.1//EN"
 "http://www.w3.org/Graphics/SVG/1.1/DTD/svg11.dtd">
<!-- Generated by graphviz version 2.40.1 (20161225.0304)
 -->
<!-- Title: dekker Pages: 1 -->
<svg width="424pt" height="720pt"
 viewBox="0.00 0.00 423.97 720.00" xmlns="http://www.w3.org/2000/svg" xmlns:xlink="http://www.w3.org/1999/xlink">
<g id="graph0" class="graph" transform="scale(.7438 .7438) rotate(0) translate(4 963.9954)">
<title>dekker</title>
<polygon fill="#ffffff" stroke="transparent" points="-4,4 -4,-963.9954 566,-963.9954 566,4 -4,4"/>
<g id="clust1" class="cluster">
<title>cluster_1</title>
<path fill="#ffffff" stroke="#000000" d="M20,-8C20,-8 542,-8 542,-8 548,-8 554,-14 554,-20 554,-20 554,-939.9954 554,-939.9954 554,-945.9954 548,-951.9954 542,-951.9954 542,-951.9954 20,-951.9954 20,-951.9954 14,-951.9954 8,-945.9954 8,-939.9954 8,-939.9954 8,-20 8,-20 8,-14 14,-8 20,-8"/>
</g>
<!-- Start -->
<g id="node1" class="node">
<title>Start</title>
<ellipse fill="none" stroke="#000000" stroke-dasharray="1,5" cx="448" cy="-917.9977" rx="25.9954" ry="25.9954"/>
<text text-anchor="middle" x="448" y="-914.2977" font-family="Times,serif" font-size="14.00" fill="#000000">start</text>
</g>
<!-- p1 -->
<g id="node2" class="node">
<title>p1</title>
<ellipse fill="#ffc0cb" stroke="#000000" cx="448" cy="-799" rx="27" ry="18"/>
<text text-anchor="middle" x="448" y="-795.3" font-family="Times,serif" font-size="14.00" fill="#000000">p1</text>
</g>
<!-- Start&#45;&gt;p1 -->
<g id="edge1" class="edge">
<title>Start&#45;&gt;p1</title>
<path fill="none" stroke="#000000" d="M448,-891.8831C448,-872.8336 448,-847.0336 448,-827.4591"/>
<polygon fill="#000000" stroke="#000000" points="451.5001,-827.3072 448,-817.3072 444.5001,-827.3072 451.5001,-827.3072"/>
</g>
<!-- p2 -->
<g id="node3" class="node">
<title>p2</title>
<ellipse fill="#ffc0cb" stroke="#000000" cx="380" cy="-674" rx="27" ry="18"/>
<text text-anchor="middle" x="380" y="-670.3" font-family="Times,serif" font-size="14.00" fill="#000000">p2</text>
</g>
<!-- p1&#45;&gt;p2 -->
<g id="edge2" class="edge">
<title>p1&#45;&gt;p2</title>
<path fill="none" stroke="#000000" stroke-width="2" d="M438.6875,-781.8814C427.2052,-760.7743 407.5728,-724.6853 394.2049,-700.1119"/>
<polygon fill="#000000" stroke="#000000" stroke-width="2" points="397.2715,-698.4248 389.4183,-691.313 391.1225,-701.7699 397.2715,-698.4248"/>
<text text-anchor="middle" x="439.5" y="-732.8" font-family="Times,serif" font-size="14.00" fill="#000000">Non&#45;CS</text>
</g>
<!-- p3 -->
<g id="node4" class="node">
<title>p3</title>
<defs>
<linearGradient id="l_0" gradientUnits="userSpaceOnUse" x1="259" y1="-549" x2="313" y2="-549" >
<stop offset="0.499" style="stop-color:#ff0000;stop-opacity:1.;"/>
<stop offset="0.500" style="stop-color:#ffc0cb;stop-opacity:1.;"/>
</linearGradient>
</defs>
<ellipse fill="url(#l_0)" stroke="#000000" cx="286" cy="-549" rx="27" ry="18"/>
<text text-anchor="middle" x="286" y="-545.3" font-family="Times,serif" font-size="14.00" fill="#000000">p3</text>
</g>
<!-- p2&#45;&gt;p3 -->
<g id="edge3" class="edge">
<title>p2&#45;&gt;p3</title>
<path fill="none" stroke="#000000" stroke-width="2" d="M367.7111,-657.6584C351.5961,-636.2289 323.1803,-598.4419 304.4694,-573.5603"/>
<polygon fill="#000000" stroke="#000000" stroke-width="2" points="307.0995,-571.2343 298.2919,-565.3456 301.5048,-575.4415 307.0995,-571.2343"/>
<text text-anchor="middle" x="365" y="-607.8" font-family="Times,serif" font-size="14.00" fill="#000000">wantp = 1</text>
</g>
<!-- p8 -->
<g id="node5" class="node">
<title>p8</title>
<ellipse fill="#ffc0cb" stroke="#000000" cx="392" cy="-409" rx="27" ry="18"/>
<text text-anchor="middle" x="392" y="-405.3" font-family="Times,serif" font-size="14.00" fill="#000000">p8</text>
</g>
<!-- p3&#45;&gt;p8 -->
<g id="edge4" class="edge">
<title>p3&#45;&gt;p8</title>
<path fill="none" stroke="#000000" stroke-width="2" d="M298.367,-532.6662C316.8772,-508.2187 351.9129,-461.9452 373.4831,-433.4563"/>
<polygon fill="#000000" stroke="#000000" stroke-width="2" points="376.4658,-435.3151 379.7118,-425.2297 370.8849,-431.0896 376.4658,-435.3151"/>
<text text-anchor="middle" x="370" y="-475.3" font-family="Times,serif" font-size="14.00" fill="#000000">¬wantq</text>
</g>
<!-- p4 -->
<g id="node8" class="node">
<title>p4</title>
<ellipse fill="#ff0000" stroke="#000000" cx="173" cy="-409" rx="27" ry="18"/>
<text text-anchor="middle" x="173" y="-405.3" font-family="Times,serif" font-size="14.00" fill="#000000">p4</text>
</g>
<!-- p3&#45;&gt;p4 -->
<g id="edge8" class="edge">
<title>p3:sw&#45;&gt;p4</title>
<path fill="none" stroke="#000000" stroke-width="2" d="M271,-534C239.2913,-502.2913 208.3229,-460.4282 189.9491,-434.1061"/>
<polygon fill="#000000" stroke="#000000" stroke-width="2" points="192.7824,-432.0495 184.2179,-425.8124 187.0235,-436.029 192.7824,-432.0495"/>
<text text-anchor="middle" x="251" y="-475.3" font-family="Times,serif" font-size="14.00" fill="#000000">wantq</text>
</g>
<!-- p9 -->
<g id="node6" class="node">
<title>p9</title>
<ellipse fill="#ffc0cb" stroke="#000000" cx="412" cy="-284" rx="27" ry="18"/>
<text text-anchor="middle" x="412" y="-280.3" font-family="Times,serif" font-size="14.00" fill="#000000">p9</text>
</g>
<!-- p8&#45;&gt;p9 -->
<g id="edge5" class="edge">
<title>p8&#45;&gt;p9</title>
<path fill="none" stroke="#000000" stroke-width="2" d="M394.8655,-391.0905C398.1586,-370.5088 403.6055,-336.4657 407.4734,-312.291"/>
<polygon fill="#000000" stroke="#000000" stroke-width="2" points="410.9508,-312.7101 409.0748,-302.2827 404.0387,-311.6041 410.9508,-312.7101"/>
<text text-anchor="middle" x="410.5" y="-342.8" font-family="Times,serif" font-size="14.00" fill="#000000">CS</text>
</g>
<!-- p10 -->
<g id="node7" class="node">
<title>p10</title>
<ellipse fill="#ffc0cb" stroke="#000000" cx="451" cy="-159" rx="27" ry="18"/>
<text text-anchor="middle" x="451" y="-155.3" font-family="Times,serif" font-size="14.00" fill="#000000">p10</text>
</g>
<!-- p9&#45;&gt;p10 -->
<g id="edge6" class="edge">
<title>p9&#45;&gt;p10:w</title>
<path fill="none" stroke="#000000" stroke-width="2" d="M406.5525,-266.3557C397.7276,-234.995 384.1132,-171.7888 413.8728,-160.6846"/>
<polygon fill="#000000" stroke="#000000" stroke-width="2" points="414.7099,-164.0935 424,-159 413.5612,-157.1884 414.7099,-164.0935"/>
<text text-anchor="middle" x="425" y="-217.8" font-family="Times,serif" font-size="14.00" fill="#000000">wantp = 0</text>
</g>
<!-- p10&#45;&gt;p1 -->
<g id="edge7" class="edge">
<title>p10:e&#45;&gt;p1</title>
<path fill="none" stroke="#000000" stroke-width="2" d="M478,-159C507.599,-159 501,-191.901 501,-221.5 501,-736.5 501,-736.5 501,-736.5 501,-754.1724 488.5213,-769.4099 475.6739,-780.4146"/>
<polygon fill="#000000" stroke="#000000" stroke-width="2" points="473.4004,-777.7505 467.7352,-786.7035 477.7471,-783.2374 473.4004,-777.7505"/>
<text text-anchor="middle" x="523.5" y="-475.3" font-family="Times,serif" font-size="14.00" fill="#000000">turn = 2</text>
</g>
<!-- p4&#45;&gt;p3 -->
<g id="edge9" class="edge">
<title>p4&#45;&gt;p3:w</title>
<path fill="none" stroke="#000000" stroke-width="2" d="M158.5974,-424.2603C143.7284,-441.9437 124.5794,-471.5275 139,-494 168.8283,-540.4834 196.8504,-548.1908 248.9799,-548.9344"/>
<polygon fill="#000000" stroke="#000000" stroke-width="2" points="248.9773,-552.4344 259,-549 249.0232,-545.4345 248.9773,-552.4344"/>
<text text-anchor="middle" x="170.5" y="-482.8" font-family="Times,serif" font-size="14.00" fill="#000000">¬(turn==2)</text>
<text text-anchor="middle" x="170.5" y="-467.8" font-family="Times,serif" font-size="14.00" fill="#000000">SPIN</text>
</g>
<!-- p5 -->
<g id="node9" class="node">
<title>p5</title>
<ellipse fill="#ff0000" stroke="#000000" cx="173" cy="-284" rx="27" ry="18"/>
<text text-anchor="middle" x="173" y="-280.3" font-family="Times,serif" font-size="14.00" fill="#000000">p5</text>
</g>
<!-- p4&#45;&gt;p5 -->
<g id="edge10" class="edge">
<title>p4&#45;&gt;p5</title>
<path fill="none" stroke="#000000" stroke-width="2" d="M173,-390.8239C173,-370.2723 173,-336.5472 173,-312.4893"/>
<polygon fill="#000000" stroke="#000000" stroke-width="2" points="176.5001,-312.198 173,-302.198 169.5001,-312.198 176.5001,-312.198"/>
<text text-anchor="middle" x="200.5" y="-342.8" font-family="Times,serif" font-size="14.00" fill="#000000">(turn==2)</text>
</g>
<!-- p6 -->
<g id="node10" class="node">
<title>p6</title>
<ellipse fill="#ff0000" stroke="#000000" cx="182" cy="-159" rx="27" ry="18"/>
<text text-anchor="middle" x="182" y="-155.3" font-family="Times,serif" font-size="14.00" fill="#000000">p6</text>
<text text-anchor="middle" x="95.5" y="-195.8" font-family="Times,serif" font-size="14.00" fill="#000000">p6</text>
<text text-anchor="middle" x="95.5" y="-180.8" font-family="Times,serif" font-size="14.00" fill="#000000">WAIT while turn==2</text>
</g>
<!-- p5&#45;&gt;p6 -->
<g id="edge11" class="edge">
<title>p5&#45;&gt;p6</title>
<path fill="none" stroke="#000000" stroke-width="2" d="M174.3087,-265.8239C175.7884,-245.2723 178.2166,-211.5472 179.9488,-187.4893"/>
<polygon fill="#000000" stroke="#000000" stroke-width="2" points="183.4625,-187.4236 180.6897,-177.198 176.4805,-186.9208 183.4625,-187.4236"/>
<text text-anchor="middle" x="205" y="-217.8" font-family="Times,serif" font-size="14.00" fill="#000000">wantp = 0</text>
</g>
<!-- p7 -->
<g id="node11" class="node">
<title>p7</title>
<ellipse fill="#ff0000" stroke="#000000" cx="235" cy="-34" rx="27" ry="18"/>
<text text-anchor="middle" x="235" y="-30.3" font-family="Times,serif" font-size="14.00" fill="#000000">p7</text>
</g>
<!-- p6&#45;&gt;p7 -->
<g id="edge12" class="edge">
<title>p6&#45;&gt;p7:w</title>
<path fill="none" stroke="#000000" stroke-width="2" d="M178.3628,-141.0905C172.8354,-109.4972 166.0613,-46.1852 197.948,-35.5368"/>
<polygon fill="#000000" stroke="#000000" stroke-width="2" points="198.6438,-38.9711 208,-34 197.5859,-32.0515 198.6438,-38.9711"/>
<text text-anchor="middle" x="200.5" y="-92.8" font-family="Times,serif" font-size="14.00" fill="#000000">(turn==1)</text>
</g>
<!-- p7&#45;&gt;p3 -->
<g id="edge13" class="edge">
<title>p7:e&#45;&gt;p3</title>
<path fill="none" stroke="#000000" stroke-width="2" d="M262,-34C291.7554,-34 286,-66.7446 286,-96.5 286,-479 286,-479 286,-479 286,-492.7668 286,-508.0566 286,-520.8258"/>
<polygon fill="#000000" stroke="#000000" stroke-width="2" points="282.5001,-520.8704 286,-530.8704 289.5001,-520.8704 282.5001,-520.8704"/>
<text text-anchor="middle" x="314" y="-280.3" font-family="Times,serif" font-size="14.00" fill="#000000">wantp = 1</text>
</g>
</g>
</svg>
